<svg width="100.00000000000001" height="100.00000000000001" xmlns="http://www.w3.org/2000/svg">

 <g>
  <title>background</title>
  <rect fill="none" id="canvas_background" height="102" width="102" y="-1" x="-1"/>
 </g>
 <g>
  <title>Layer 1</title>
  <path id="svg_1" fill-rule="evenodd" fill="#ffffff" d="m64.5,44.6c0,-11.6 -9.4,-20.9 -20.9,-20.9c-11.6,0 -20.9,9.4 -20.9,20.9c0,11.6 9.4,20.9 20.9,20.9c11.5,0.1 20.9,-9.3 20.9,-20.9zm15.5,34.7l-1.8,1.8l-19,-19c-4.2,3.7 -9.6,6 -15.7,6c-13,0 -23.5,-10.5 -23.5,-23.5c0,-13 10.5,-23.5 23.5,-23.5c13,0 23.5,10.5 23.5,23.5c0,6 -2.3,11.5 -6,15.7l19,19z" clip-rule="evenodd"/>
 </g>
</svg>